<?xml version="1.0" encoding="UTF-8"?>
<!DOCTYPE svg PUBLIC "-//W3C//DTD SVG 1.1//EN" "http://www.w3.org/Graphics/SVG/1.1/DTD/svg11.dtd">
<svg xmlns="http://www.w3.org/2000/svg" version="1.1" width="24px" height="24px" style="shape-rendering:geometricPrecision; text-rendering:geometricPrecision; image-rendering:optimizeQuality; fill-rule:evenodd; clip-rule:evenodd" xmlns:xlink="http://www.w3.org/1999/xlink">
<g><path style="opacity:0.622" fill="#84adfa" d="M 9.5,-0.5 C 10.8333,-0.5 12.1667,-0.5 13.5,-0.5C 13.8333,0.166667 14.1667,0.833333 14.5,1.5C 14.5,2.16667 14.5,2.83333 14.5,3.5C 13.5178,2.85917 12.5178,2.19251 11.5,1.5C 10.4822,2.19251 9.48224,2.85917 8.5,3.5C 8.5,2.83333 8.5,2.16667 8.5,1.5C 8.83333,0.833333 9.16667,0.166667 9.5,-0.5 Z"/></g>
<g><path style="opacity:0.004" fill="#6157ff" d="M 15.5,1.5 C 16.779,0.284848 17.779,0.618182 18.5,2.5C 18.1667,2.5 17.8333,2.5 17.5,2.5C 17.1667,2.5 16.8333,2.5 16.5,2.5C 16.5,1.83333 16.1667,1.5 15.5,1.5 Z"/></g>
<g><path style="opacity:0.008" fill="#9591e1" d="M 7.5,1.5 C 6.83333,1.5 6.5,1.83333 6.5,2.5C -1.38551,2.46817 -1.38551,1.8015 6.5,0.5C 7.10667,0.62358 7.44001,0.956913 7.5,1.5 Z"/></g>
<g><path style="opacity:0.731" fill="#7ea7f8" d="M 7.5,1.5 C 7.83333,1.5 8.16667,1.5 8.5,1.5C 8.5,2.16667 8.5,2.83333 8.5,3.5C 7.71087,3.78281 7.0442,4.28281 6.5,5C 8.80982,5.49665 11.1432,5.66331 13.5,5.5C 14.2389,5.36899 14.9056,5.53566 15.5,6C 12.6353,6.1829 9.96864,6.6829 7.5,7.5C 6.6829,9.96864 6.1829,12.6353 6,15.5C 6.05334,12.3248 5.22001,9.65814 3.5,7.5C 2.66175,7.84171 2.32842,8.50838 2.5,9.5C 1.83333,9.16667 1.16667,8.83333 0.5,8.5C 0.166667,8.5 -0.166667,8.5 -0.5,8.5C -0.5,7.16667 -0.5,5.83333 -0.5,4.5C 1.95209,3.93457 4.28542,3.2679 6.5,2.5C 7.16667,2.5 7.5,2.16667 7.5,1.5 Z"/></g>
<g><path style="opacity:0.541" fill="#83abfa" d="M 14.5,1.5 C 14.8333,1.5 15.1667,1.5 15.5,1.5C 16.1667,1.5 16.5,1.83333 16.5,2.5C 16.5,3.16667 16.8333,3.5 17.5,3.5C 17.5,4.16667 17.8333,4.5 18.5,4.5C 18.5,5.16667 18.8333,5.5 19.5,5.5C 19.5,6.16667 19.8333,6.5 20.5,6.5C 20.5,7.16667 20.8333,7.5 21.5,7.5C 21.5,8.16667 21.8333,8.5 22.5,8.5C 22.5,9.16667 22.8333,9.5 23.5,9.5C 23.5,10.8333 23.5,12.1667 23.5,13.5C 22.8333,13.5 22.5,13.8333 22.5,14.5C 21.8333,14.5 21.5,14.8333 21.5,15.5C 21.1667,15.5 20.8333,15.5 20.5,15.5C 19.2502,15.5774 18.4169,16.244 18,17.5C 17.5172,16.552 17.3505,15.552 17.5,14.5C 18.6138,13.1147 19.6138,11.6147 20.5,10C 19.7562,8.96141 18.7562,8.46141 17.5,8.5C 17.7271,6.06725 16.7271,4.40058 14.5,3.5C 14.5,2.83333 14.5,2.16667 14.5,1.5 Z"/></g>
<g><path style="opacity:1" fill="#84aaf9" d="M 14.5,3.5 C 14.1667,4.16667 13.8333,4.83333 13.5,5.5C 11.1432,5.66331 8.80982,5.49665 6.5,5C 7.0442,4.28281 7.71087,3.78281 8.5,3.5C 9.48224,2.85917 10.4822,2.19251 11.5,1.5C 12.5178,2.19251 13.5178,2.85917 14.5,3.5 Z"/></g>
<g><path style="opacity:0.016" fill="#749dff" d="M 17.5,3.5 C 17.5,3.16667 17.5,2.83333 17.5,2.5C 17.8333,2.5 18.1667,2.5 18.5,2.5C 20.5869,3.58457 21.9202,5.25124 22.5,7.5C 22.1667,7.5 21.8333,7.5 21.5,7.5C 20.8333,7.5 20.5,7.16667 20.5,6.5C 19.8333,6.5 19.5,6.16667 19.5,5.5C 18.8333,5.5 18.5,5.16667 18.5,4.5C 17.8333,4.5 17.5,4.16667 17.5,3.5 Z"/></g>
<g><path style="opacity:0.024" fill="#80aaff" d="M 22.5,7.5 C 22.8333,7.5 23.1667,7.5 23.5,7.5C 23.5,7.83333 23.5,8.16667 23.5,8.5C 23.1667,8.16667 22.8333,7.83333 22.5,7.5 Z"/></g>
<g><path style="opacity:1" fill="#92b3fa" d="M 14.5,3.5 C 16.7271,4.40058 17.7271,6.06725 17.5,8.5C 15.1667,9.83333 12.8333,9.83333 10.5,8.5C 12.1992,8.66018 13.8659,8.49351 15.5,8C 12.854,7.50258 10.1873,7.33591 7.5,7.5C 9.96864,6.6829 12.6353,6.1829 15.5,6C 14.9056,5.53566 14.2389,5.36899 13.5,5.5C 13.8333,4.83333 14.1667,4.16667 14.5,3.5 Z"/></g>
<g><path style="opacity:0.631" fill="#84affb" d="M 0.5,8.5 C 1.16667,8.83333 1.83333,9.16667 2.5,9.5C 1.26553,11.3983 1.59887,13.065 3.5,14.5C 2.83333,14.5 2.16667,14.5 1.5,14.5C 0.833333,14.1667 0.166667,13.8333 -0.5,13.5C -0.5,12.1667 -0.5,10.8333 -0.5,9.5C 0.166667,9.5 0.5,9.16667 0.5,8.5 Z"/></g>
<g><path style="opacity:1" fill="#80a8f8" d="M 10.5,8.5 C 12.8333,9.83333 15.1667,9.83333 17.5,8.5C 18.7562,8.46141 19.7562,8.96141 20.5,10C 19.6138,11.6147 18.6138,13.1147 17.5,14.5C 16.8333,15.1667 16.1667,15.8333 15.5,16.5C 15.5,16.1667 15.5,15.8333 15.5,15.5C 13.6309,14.8354 11.6309,14.1687 9.5,13.5C 14.8333,12.1667 14.8333,10.8333 9.5,9.5C 9.62358,8.89333 9.95691,8.55999 10.5,8.5 Z"/></g>
<g><path style="opacity:0.986" fill="#82a9f9" d="M 3.5,7.5 C 4.75635,9.941 4.75635,12.2743 3.5,14.5C 1.59887,13.065 1.26553,11.3983 2.5,9.5C 2.32842,8.50838 2.66175,7.84171 3.5,7.5 Z"/></g>
<g><path style="opacity:1" fill="#e8edfd" d="M 7.5,7.5 C 10.1873,7.33591 12.854,7.50258 15.5,8C 13.8659,8.49351 12.1992,8.66018 10.5,8.5C 9.95691,8.55999 9.62358,8.89333 9.5,9.5C 14.8333,10.8333 14.8333,12.1667 9.5,13.5C 11.6309,14.1687 13.6309,14.8354 15.5,15.5C 12.8333,15.5 10.1667,15.5 7.5,15.5C 7.5,12.8333 7.5,10.1667 7.5,7.5 Z"/></g>
<g><path style="opacity:0.541" fill="#8baffa" d="M 3.5,7.5 C 5.22001,9.65814 6.05334,12.3248 6,15.5C 6.1829,12.6353 6.6829,9.96864 7.5,7.5C 7.5,10.1667 7.5,12.8333 7.5,15.5C 10.1667,15.5 12.8333,15.5 15.5,15.5C 15.5,15.8333 15.5,16.1667 15.5,16.5C 12.6146,16.1936 9.9479,16.5269 7.5,17.5C 8.5,18.8333 9.5,20.1667 10.5,21.5C 9.83333,21.5 9.16667,21.5 8.5,21.5C 8.16667,21.5 7.83333,21.5 7.5,21.5C 7.5,20.8333 7.16667,20.5 6.5,20.5C 6.5,19.8333 6.16667,19.5 5.5,19.5C 5.5,18.8333 5.16667,18.5 4.5,18.5C 4.5,17.8333 4.16667,17.5 3.5,17.5C 3.5,16.8333 3.16667,16.5 2.5,16.5C 2.5,15.8333 2.16667,15.5 1.5,15.5C 1.5,15.1667 1.5,14.8333 1.5,14.5C 2.16667,14.5 2.83333,14.5 3.5,14.5C 4.75635,12.2743 4.75635,9.941 3.5,7.5 Z"/></g>
<g><path style="opacity:0.004" fill="#6157ff" d="M 1.5,15.5 C 2.16667,15.5 2.5,15.8333 2.5,16.5C 2.5,16.8333 2.5,17.1667 2.5,17.5C 2.5,17.8333 2.5,18.1667 2.5,18.5C 0.618182,17.779 0.284848,16.779 1.5,15.5 Z"/></g>
<g><path style="opacity:0.832" fill="#82a8f9" d="M 17.5,14.5 C 17.3505,15.552 17.5172,16.552 18,17.5C 18.4169,16.244 19.2502,15.5774 20.5,15.5C 20.8333,16.8333 21.1667,16.8333 21.5,15.5C 22.1667,15.5 22.5,15.1667 22.5,14.5C 22.8333,14.5 23.1667,14.5 23.5,14.5C 23.5,15.1667 23.5,15.8333 23.5,16.5C 22.596,17.209 22.2627,18.209 22.5,19.5C 21.209,19.2627 20.209,19.596 19.5,20.5C 17.901,20.2322 16.5676,20.5655 15.5,21.5C 15.1667,21.5 14.8333,21.5 14.5,21.5C 14.5774,20.2502 15.244,19.4169 16.5,19C 15.7562,17.9614 14.7562,17.4614 13.5,17.5C 11.5,17.5 9.5,17.5 7.5,17.5C 9.9479,16.5269 12.6146,16.1936 15.5,16.5C 16.1667,15.8333 16.8333,15.1667 17.5,14.5 Z"/></g>
<g><path style="opacity:1" fill="#82a9f9" d="M 7.5,17.5 C 9.5,17.5 11.5,17.5 13.5,17.5C 12.4019,18.397 12.4019,19.2303 13.5,20C 12.7562,21.0386 11.7562,21.5386 10.5,21.5C 9.5,20.1667 8.5,18.8333 7.5,17.5 Z"/></g>
<g><path style="opacity:0.004" fill="#00fffe" d="M 22.5,19.5 C 22.8333,19.5 23.1667,19.5 23.5,19.5C 23.5,19.8333 23.5,20.1667 23.5,20.5C 23.1667,20.1667 22.8333,19.8333 22.5,19.5 Z"/></g>
<g><path style="opacity:0.016" fill="#749dff" d="M 2.5,17.5 C 2.83333,17.5 3.16667,17.5 3.5,17.5C 4.16667,17.5 4.5,17.8333 4.5,18.5C 5.16667,18.5 5.5,18.8333 5.5,19.5C 6.16667,19.5 6.5,19.8333 6.5,20.5C 7.16667,20.5 7.5,20.8333 7.5,21.5C 7.5,21.8333 7.5,22.1667 7.5,22.5C 5.25124,21.9202 3.58457,20.5869 2.5,18.5C 2.5,18.1667 2.5,17.8333 2.5,17.5 Z"/></g>
<g><path style="opacity:0.69" fill="#83acfa" d="M 13.5,17.5 C 14.7562,17.4614 15.7562,17.9614 16.5,19C 15.244,19.4169 14.5774,20.2502 14.5,21.5C 14.5,21.8333 14.5,22.1667 14.5,22.5C 13.8333,22.5 13.5,22.8333 13.5,23.5C 12.1667,23.5 10.8333,23.5 9.5,23.5C 9.5,22.8333 9.16667,22.5 8.5,22.5C 8.5,22.1667 8.5,21.8333 8.5,21.5C 9.16667,21.5 9.83333,21.5 10.5,21.5C 11.7562,21.5386 12.7562,21.0386 13.5,20C 12.4019,19.2303 12.4019,18.397 13.5,17.5 Z"/></g>
<g><path style="opacity:0.004" fill="#6a6aff" d="M 19.5,20.5 C 21.337,20.6395 21.6704,21.3061 20.5,22.5C 19.7025,22.0431 19.3691,21.3764 19.5,20.5 Z"/></g>
<g><path style="opacity:0.024" fill="#80aaff" d="M 7.5,22.5 C 7.83333,22.5 8.16667,22.5 8.5,22.5C 8.5,22.8333 8.5,23.1667 8.5,23.5C 8.16667,23.1667 7.83333,22.8333 7.5,22.5 Z"/></g>
<g><path style="opacity:0.004" fill="#ceefff" d="M 15.5,21.5 C 16.7095,21.9321 17.7095,22.5987 18.5,23.5C 17.1667,23.5 15.8333,23.5 14.5,23.5C 14.5,23.1667 14.5,22.8333 14.5,22.5C 15.1667,22.5 15.5,22.1667 15.5,21.5 Z"/></g>
</svg>
